<svg xmlns="http://www.w3.org/2000/svg" viewBox="0 0 999 100"><defs></defs><g id="Layer_2" data-name="Layer 2"><g id="Layer_1-2" data-name="Layer 1"><path d="M919,100H874.75a14,14,0,0,0-28,0H802.5a14,14,0,0,0-28,0H730.25a14,14,0,0,0-28,0H658a14,14,0,0,0-28,0H585.75a14,14,0,0,0-28,0H513.5a14,14,0,0,0-28,0H441.25a14,14,0,0,0-28,0H369a14,14,0,0,0-28,0H296.75a14,14,0,0,0-28,0H224.5a14,14,0,0,0-28,0H152.25a14,14,0,0,0-28,0H80A80,80,0,0,0,0,20V0H999V20A80,80,0,0,0,919,100Z"/><path class="cls-1" d="M897,75H102A105.21,105.21,0,0,0,32.08,0H966.92A105.21,105.21,0,0,0,897,75Z"/></g></g></svg>