<svg xmlns="http://www.w3.org/2000/svg" viewBox="0 0 999 200"><defs></defs><g id="Layer_2" data-name="Layer 2"><g id="Layer_1-2" data-name="Layer 1"><path d="M919.23,94.22A80,80,0,0,1,999,20V0H966.92a105,105,0,0,0,0,200H999V180a80,80,0,0,1-79.77-74.22,6,6,0,0,1,0-11.56ZM902.89,106a6,6,0,1,1,6-6A6,6,0,0,1,902.89,106Z"/><path d="M105,100A105,105,0,0,0,32.08,0H0V20A80,80,0,0,1,79.77,94.22a6,6,0,0,1,0,11.56A80,80,0,0,1,0,180v20H32.08A105,105,0,0,0,105,100Zm-8.89-6a6,6,0,1,1-6,6A6,6,0,0,1,96.11,94Z"/><path class="cls-1" d="M894,100A105,105,0,0,1,966.92,0H32.08A105,105,0,0,1,105,100,105,105,0,0,1,32.08,200H966.92A105,105,0,0,1,894,100Zm-780,6a6,6,0,1,1,6-6A6,6,0,0,1,114,106ZM132,106a6,6,0,1,1,6-6A6,6,0,0,1,132,106Zm17.93,0a6,6,0,1,1,6-6A6,6,0,0,1,149.89,106Zm17.93,0a6,6,0,1,1,6-6A6,6,0,0,1,167.82,106Zm17.93,0a6,6,0,1,1,6-6A6,6,0,0,1,185.75,106Zm17.93,0a6,6,0,1,1,6-6A6,6,0,0,1,203.68,106Zm17.93,0a6,6,0,1,1,6-6A6,6,0,0,1,221.61,106Zm17.93,0a6,6,0,1,1,6-6A6,6,0,0,1,239.54,106Zm17.92,0a6,6,0,1,1,6-6A6,6,0,0,1,257.46,106Zm17.93,0a6,6,0,1,1,6-6A6,6,0,0,1,275.39,106Zm17.93,0a6,6,0,1,1,6-6A6,6,0,0,1,293.32,106Zm17.93,0a6,6,0,1,1,6-6A6,6,0,0,1,311.25,106Zm17.93,0a6,6,0,1,1,6-6A6,6,0,0,1,329.18,106Zm17.93,0a6,6,0,1,1,6-6A6,6,0,0,1,347.11,106ZM365,106a6,6,0,1,1,6-6A6,6,0,0,1,365,106ZM383,106a6,6,0,1,1,6-6A6,6,0,0,1,383,106Zm17.93,0a6,6,0,1,1,6-6A6,6,0,0,1,400.89,106Zm17.93,0a6,6,0,1,1,6-6A6,6,0,0,1,418.82,106Zm17.93,0a6,6,0,1,1,6-6A6,6,0,0,1,436.75,106Zm17.93,0a6,6,0,1,1,6-6A6,6,0,0,1,454.68,106Zm17.93,0a6,6,0,1,1,6-6A6,6,0,0,1,472.61,106Zm17.93,0a6,6,0,1,1,6-6A6,6,0,0,1,490.54,106Zm17.92,0a6,6,0,1,1,6-6A6,6,0,0,1,508.46,106Zm17.93,0a6,6,0,1,1,6-6A6,6,0,0,1,526.39,106Zm17.93,0a6,6,0,1,1,6-6A6,6,0,0,1,544.32,106Zm17.93,0a6,6,0,1,1,6-6A6,6,0,0,1,562.25,106Zm17.93,0a6,6,0,1,1,6-6A6,6,0,0,1,580.18,106Zm17.93,0a6,6,0,1,1,6-6A6,6,0,0,1,598.11,106ZM616,106a6,6,0,1,1,6-6A6,6,0,0,1,616,106ZM634,106a6,6,0,1,1,6-6A6,6,0,0,1,634,106Zm17.93,0a6,6,0,1,1,6-6A6,6,0,0,1,651.89,106Zm17.93,0a6,6,0,1,1,6-6A6,6,0,0,1,669.82,106Zm17.93,0a6,6,0,1,1,6-6A6,6,0,0,1,687.75,106Zm17.93,0a6,6,0,1,1,6-6A6,6,0,0,1,705.68,106Zm17.93,0a6,6,0,1,1,6-6A6,6,0,0,1,723.61,106Zm17.93,0a6,6,0,1,1,6-6A6,6,0,0,1,741.54,106Zm17.92,0a6,6,0,1,1,6-6A6,6,0,0,1,759.46,106Zm17.93,0a6,6,0,1,1,6-6A6,6,0,0,1,777.39,106Zm17.93,0a6,6,0,1,1,6-6A6,6,0,0,1,795.32,106Zm17.93,0a6,6,0,1,1,6-6A6,6,0,0,1,813.25,106Zm17.93,0a6,6,0,1,1,6-6A6,6,0,0,1,831.18,106Zm17.93,0a6,6,0,1,1,6-6A6,6,0,0,1,849.11,106ZM867,106a6,6,0,1,1,6-6A6,6,0,0,1,867,106ZM885,106a6,6,0,1,1,6-6A6,6,0,0,1,885,106Z"/></g></g></svg>