<svg xmlns="http://www.w3.org/2000/svg" viewBox="0 0 999 200"><defs></defs><g id="Layer_2" data-name="Layer 2"><g id="Layer_1-2" data-name="Layer 1"><path d="M999,20V0H0V20a80,80,0,0,1,80,80A80,80,0,0,1,0,180v20H999V180a80,80,0,0,1,0-160ZM138.25,114a14,14,0,1,1,14-14A14,14,0,0,1,138.25,114Zm72.25,0a14,14,0,1,1,14-14A14,14,0,0,1,210.5,114Zm72.25,0a14,14,0,1,1,14-14A14,14,0,0,1,282.75,114ZM355,114a14,14,0,1,1,14-14A14,14,0,0,1,355,114Zm72.25,0a14,14,0,1,1,14-14A14,14,0,0,1,427.25,114Zm72.25,0a14,14,0,1,1,14-14A14,14,0,0,1,499.5,114Zm72.25,0a14,14,0,1,1,14-14A14,14,0,0,1,571.75,114ZM644,114a14,14,0,1,1,14-14A14,14,0,0,1,644,114Zm72.25,0a14,14,0,1,1,14-14A14,14,0,0,1,716.25,114Zm72.25,0a14,14,0,1,1,14-14A14,14,0,0,1,788.5,114Zm72.25,0a14,14,0,1,1,14-14A14,14,0,0,1,860.75,114Z"/><path class="cls-1" d="M102,75H897A105.21,105.21,0,0,1,966.92,0H32.08A105.21,105.21,0,0,1,102,75Z"/><path class="cls-1" d="M897,125H102a105.21,105.21,0,0,1-69.92,75H966.92A105.21,105.21,0,0,1,897,125Z"/></g></g></svg>