<svg xmlns="http://www.w3.org/2000/svg" viewBox="0 0 999 100"><defs></defs><g id="Layer_2" data-name="Layer 2"><g id="Layer_1-2" data-name="Layer 1"><path d="M919,0H874.75a14,14,0,0,1-14,14,14,14,0,0,1-14-14H802.5a14,14,0,0,1-14,14,14,14,0,0,1-14-14H730.25a14,14,0,0,1-14,14,14,14,0,0,1-14-14H658a14,14,0,0,1-14,14A14,14,0,0,1,630,0H585.75a14,14,0,0,1-14,14,14,14,0,0,1-14-14H513.5a14,14,0,0,1-14,14,14,14,0,0,1-14-14H441.25a14,14,0,0,1-14,14,14,14,0,0,1-14-14H369a14,14,0,0,1-14,14A14,14,0,0,1,341,0H296.75a14,14,0,0,1-14,14,14,14,0,0,1-14-14H224.5a14,14,0,0,1-14,14,14,14,0,0,1-14-14H152.25a14,14,0,0,1-14,14,14,14,0,0,1-14-14H80A80,80,0,0,1,0,80v20H999V80A80,80,0,0,1,919,0Z"/><path class="cls-1" d="M897,25H102a105.21,105.21,0,0,1-69.92,75H966.92A105.21,105.21,0,0,1,897,25Z"/></g></g></svg>