<svg xmlns="http://www.w3.org/2000/svg" viewBox="0 0 2590 2590"><defs><style>.cls-1{fill:none;}.bg-white{fill:#ffd;}.bg-colored{fill:#315046;}</style></defs><g id="Layer_2" data-name="Layer 2"><g id="Layer_1-2" data-name="Layer 1"><polygon class="cls-1" points="0 0 0 12.66 13.49 0 0 0"/><polygon class="cls-1" points="0 2590 0.83 2590 0 2588.99 0 2590"/><polygon class="cls-1" points="2590 0 2576.51 0 2590 12.66 2590 0"/><polygon class="cls-1" points="2589.17 2590 2590 2590 2590 2588.99 2589.17 2590"/><polygon class="bg-white" points="1453.87 0 1295 0 1295 1296 1453.87 0"/><polygon class="bg-white" points="1126.42 0 962.24 0 1295 1296 1126.42 0"/><polygon class="bg-white" points="776.34 0 582.52 0 1295 1296 776.34 0"/><polygon class="bg-white" points="346.08 0 77.97 0 1295 1296 346.08 0"/><polygon class="bg-white" points="0 232.7 0 474.17 1295 1296 0 232.7"/><polygon class="bg-white" points="0 692.44 0 875.23 1295 1296 0 692.44"/><polygon class="bg-white" points="0 1053.91 0 1214.53 1295 1296 0 1053.91"/><polygon class="bg-white" points="0 1382.27 0 1543.03 1295 1296 0 1382.27"/><polygon class="bg-white" points="0 1722.06 0 1905.38 1295 1296 0 1722.06"/><polygon class="bg-white" points="0 2124.55 0 2367.32 1295 1296 0 2124.55"/><polygon class="bg-white" points="88.8 2590 354.85 2590 1295 1296 88.8 2590"/><polygon class="bg-white" points="589.82 2590 782.67 2590 1295 1296 589.82 2590"/><polygon class="bg-white" points="967.84 2590 1131.53 2590 1295 1296 967.84 2590"/><polygon class="bg-white" points="1299.77 2590 1458.47 2590 1295 1296 1299.77 2590"/><polygon class="bg-white" points="1632.33 2590 1807.33 2590 1295 1296 1632.33 2590"/><polygon class="bg-white" points="2012.61 2590 2235.15 2590 1295 1296 2012.61 2590"/><polygon class="bg-white" points="2590 2367.32 1295 1296 2519.16 2590 2589.17 2590 2590 2588.99 2590 2367.32"/><polygon class="bg-white" points="2590 2111.15 2590 1905.38 1295 1296 2590 2111.15"/><polygon class="bg-white" points="2590 1711.5 2590 1543.03 1295 1296 2590 1711.5"/><polygon class="bg-white" points="2590 1372.68 2590 1214.53 1295 1296 2590 1372.68"/><polygon class="bg-white" points="2590 1044.01 2590 875.23 1295 1296 2590 1044.01"/><polygon class="bg-white" points="2590 680.78 2590 474.17 1295 1296 2590 680.78"/><polygon class="bg-white" points="2590 216.62 2590 12.66 2576.51 0 2512.03 0 1295 1296 2590 216.62"/><polygon class="bg-white" points="2229.32 0 2007.48 0 1295 1296 2229.32 0"/><polygon class="bg-white" points="1802.6 0 1627.76 0 1295 1296 1802.6 0"/><polygon class="bg-colored" points="1295 0 1126.42 0 1295 1296 1295 0"/><polygon class="bg-colored" points="962.24 0 776.34 0 1295 1296 962.24 0"/><polygon class="bg-colored" points="582.52 0 346.08 0 1295 1296 582.52 0"/><polygon class="bg-colored" points="77.97 0 13.49 0 0 12.66 0 232.7 1295 1296 77.97 0"/><polygon class="bg-colored" points="0 474.17 0 692.44 1295 1296 0 474.17"/><polygon class="bg-colored" points="0 875.23 0 1053.91 1295 1296 0 875.23"/><polygon class="bg-colored" points="0 1214.53 0 1382.27 1295 1296 0 1214.53"/><polygon class="bg-colored" points="0 1543.03 0 1722.06 1295 1296 0 1543.03"/><polygon class="bg-colored" points="0 1905.38 0 2124.55 1295 1296 0 1905.38"/><polygon class="bg-colored" points="0 2367.32 0 2588.99 0.83 2590 88.8 2590 1295 1296 0 2367.32"/><polygon class="bg-colored" points="354.85 2590 589.82 2590 1295 1296 354.85 2590"/><polygon class="bg-colored" points="782.67 2590 967.84 2590 1295 1296 782.67 2590"/><polygon class="bg-colored" points="1131.53 2590 1299.77 2590 1295 1296 1131.53 2590"/><polygon class="bg-colored" points="1458.47 2590 1632.33 2590 1295 1296 1458.47 2590"/><polygon class="bg-colored" points="1807.33 2590 2012.61 2590 1295 1296 1807.33 2590"/><polygon class="bg-colored" points="2235.15 2590 2519.16 2590 1295 1296 2235.15 2590"/><polygon class="bg-colored" points="2590 2367.32 2590 2111.15 1295 1296 2590 2367.32"/><polygon class="bg-colored" points="2590 1905.38 2590 1711.5 1295 1296 2590 1905.38"/><polygon class="bg-colored" points="2590 1543.03 2590 1372.68 1295 1296 2590 1543.03"/><polygon class="bg-colored" points="2590 1214.53 2590 1044.01 1295 1296 2590 1214.53"/><polygon class="bg-colored" points="2590 875.23 2590 680.78 1295 1296 2590 875.23"/><polygon class="bg-colored" points="2590 474.17 2590 216.62 1295 1296 2590 474.17"/><polygon class="bg-colored" points="2512.03 0 2229.32 0 1295 1296 2512.03 0"/><polygon class="bg-colored" points="2007.48 0 1802.6 0 1295 1296 2007.48 0"/><polygon class="bg-colored" points="1627.76 0 1453.87 0 1295 1296 1627.76 0"/></g></g></svg>